<?xml version="1.0" encoding="iso-8859-1"?>
<!-- Generator: Adobe Illustrator 19.0.0, SVG Export Plug-In . SVG Version: 6.00 Build 0)  -->
<svg xmlns="http://www.w3.org/2000/svg" xmlns:xlink="http://www.w3.org/1999/xlink" version="1.1" id="Capa_1" x="0px" y="0px" viewBox="0 0 480 480" style="enable-background:new 0 0 480 480;" xml:space="preserve" width="512px" height="512px">
<g>
	<g>
		<path d="M344.006,49.28c-0.025-13.224-10.765-23.924-23.989-23.899c-0.65,0.001-1.299,0.029-1.947,0.083l-6.064,0.504V24    c0-13.255-10.745-24-24-24h-96c-13.255,0-24,10.745-24,24v13.984l-10.064,0.8c-13.096,1.018-22.887,12.46-21.869,25.556    c0.412,5.296,2.585,10.302,6.173,14.22c-8.317,9.046-8.317,22.954,0,32c-8.336,9.038-8.336,22.962,0,32    c-8.328,9.041-8.328,22.959,0,32c-4.019,4.422-6.244,10.184-6.24,16.16c0.02,5.896,2.233,11.574,6.208,15.928    c-8.867,9.787-8.12,24.909,1.667,33.776c4.92,4.457,11.471,6.668,18.085,6.104l14.04-1.184V256h-16c-13.255,0-24,10.745-24,24v16    c-0.069,29.365,17.751,55.812,44.992,66.776c1,0.408,2,0.744,3.008,1.088v61.6c0.101,30.087,24.473,54.448,54.56,54.536h2.88    c26.176-0.02,48.658-18.607,53.6-44.312c0.634-3.379,0.956-6.81,0.96-10.248v-61.704c1-0.352,2.016-0.56,3.008-0.96    c27.241-10.964,45.061-37.411,44.992-66.776v-16c0-13.255-10.745-24-24-24h-16v-21.312l18.064-1.512    c12.372-1.068,21.887-11.398,21.936-23.816v-0.08c-0.016-5.888-2.236-11.556-6.224-15.888c3.983-4.379,6.201-10.08,6.224-16v-0.08    c-0.049-5.892-2.277-11.558-6.256-15.904c8.336-9.038,8.336-22.962,0-32c8.328-9.041,8.328-22.959,0-32    c3.991-4.375,6.213-10.078,6.232-16v-0.08c-0.048-5.881-2.268-11.536-6.232-15.88c4.018-4.395,6.25-10.133,6.256-16.088V49.28z     M320.742,121.248l-2.624,0.224l-157.528,13.12c-4.374,0.36-8.212-2.894-8.572-7.268c-0.36-4.374,2.894-8.212,7.268-8.572    l2.56-0.216h0.12l157.48-13.12c0.224,0,0.456,0,0.68,0c4.383,0.022,7.918,3.593,7.896,7.976c0,0.008,0,0.016,0,0.024    C327.953,117.503,324.813,120.881,320.742,121.248z M327.966,145.392c0,0.008,0,0.016,0,0.024    c-0.066,4.068-3.175,7.438-7.224,7.832l-2.632,0.224h-0.048l-157.48,13.12c-4.369,0.354-8.197-2.901-8.55-7.27    c-0.018-0.224-0.027-0.449-0.026-0.674c0.036-4.106,3.175-7.518,7.264-7.896l2.6-0.216l157.552-13.12c0.219,0,0.435,0,0.648,0    C324.453,137.438,327.988,141.009,327.966,145.392z M159.278,86.768l160.152-13.36c0.24,0,0.464,0,0.696,0    c4.331,0.043,7.832,3.541,7.88,7.872v0.08c0.007,4.095-3.12,7.515-7.2,7.872l-160.192,13.36c-4.381,0.233-8.122-3.13-8.354-7.511    C152.037,90.891,155.11,87.251,159.278,86.768z M184.006,24c0-4.418,3.582-8,8-8h96c4.418,0,8,3.582,8,8v3.28l-112,9.368V24z     M159.206,54.776l160.2-13.368c0.24,0,0.464,0,0.696,0c4.34,0.03,7.856,3.532,7.904,7.872v0.08    c0.005,4.112-3.149,7.538-7.248,7.872l-160.152,13.36c-4.367,0.387-8.221-2.841-8.608-7.208    C151.611,59.017,154.838,55.163,159.206,54.776z M159.23,182.768L319.494,169.4h0.608c4.343,0.03,7.86,3.537,7.904,7.88v0.08    c-0.022,4.189-3.29,7.643-7.472,7.896L161.286,198.56c-0.455,0-0.909,0.027-1.36,0.08c-4.392-0.009-7.945-3.577-7.935-7.969    C151.999,186.562,155.137,183.136,159.23,182.768z M280.006,375.856l-7.856-0.144c-4.394-0.02-8.005,3.464-8.144,7.856    c-0.08,4.418,3.436,8.064,7.853,8.144c0.001,0,0.002,0,0.003,0l8.144,0.144v8l-7.856-0.144c-4.372-0.124-8.017,3.32-8.141,7.693    c-0.002,0.054-0.003,0.109-0.003,0.163c-0.08,4.418,3.436,8.064,7.853,8.144c0.001,0,0.002,0,0.003,0l8.144,0.144v8l-7.856-0.144    c-4.418-0.08-8.065,3.438-8.144,7.856c-0.079,4.418,3.438,8.065,7.856,8.144l5.304,0.096    c-5.861,14.592-19.995,24.164-35.72,24.192h-2.88c-15.655-0.028-29.743-9.508-35.664-24h45.104c4.418,0,8-3.582,8-8s-3.582-8-8-8    h-48v-8h48c4.418,0,8-3.582,8-8s-3.582-8-8-8h-48v-8h48c4.418,0,8-3.582,8-8s-3.582-8-8-8h-48v-8.456    c2.656,0.304,5.327,0.457,8,0.456h64c2.673,0.001,5.344-0.152,8-0.456V375.856z M320.006,272c4.418,0,8,3.582,8,8v16    c0.051,22.844-13.814,43.417-35.008,51.944c-2.285,0.928-4.639,1.677-7.04,2.24c-4.552,1.21-9.242,1.82-13.952,1.816h-64    c-4.784-0.002-9.547-0.629-14.168-1.864c-2.327-0.557-4.608-1.29-6.824-2.192c-21.194-8.527-35.059-29.099-35.008-51.944v-16    c0-4.418,3.582-8,8-8H320.006z M224.006,256v-14.64l32-2.672V256H224.006z M272.006,256v-18.648l16-1.328V256H272.006z     M328.006,209.36c0.007,4.095-3.12,7.515-7.2,7.872l-105.432,8.8c-4.157,0.346-7.35,3.829-7.336,8V256h-16.032v-19.36    c0-2.238-0.937-4.373-2.584-5.888c-1.63-1.546-3.853-2.306-6.088-2.08l-22.728,1.92c-2.211,0.175-4.396-0.575-6.032-2.072    c-1.657-1.503-2.592-3.643-2.568-5.88c0.022-4.189,3.29-7.643,7.472-7.896l1.056-0.12h0.104l1.312-0.088l157.256-13.112    l0.904-0.064c4.372,0.004,7.916,3.548,7.92,7.92L328.006,209.36z" fill="#FFFFFF"/>
	</g>
</g>
<g>
</g>
<g>
</g>
<g>
</g>
<g>
</g>
<g>
</g>
<g>
</g>
<g>
</g>
<g>
</g>
<g>
</g>
<g>
</g>
<g>
</g>
<g>
</g>
<g>
</g>
<g>
</g>
<g>
</g>
</svg>
